In 17th century Kyoto, Osan is married to Ishun, a wealthy miserly scroll-maker. When Osan is falsely accused of having an affair with the best worker, Mohei, the pair flee the city and declare their love for each other. Ishun orders his men to find them, and separate them to avoid public humiliation.


General
Unique ID                                : 209093978524409701821815050855221613831 (0x9D4E0912CCEAD4B38C1625554430D507)
Complete name                            : Chikamatsu.monogatari.1954.MoC.DVDRip.x264.mkv
Format                                   : Matroska
Format version                           : Version 2
File size                                : 1.55 GiB
Duration                                 : 1h 42mn
Overall bit rate                         : 2 165 Kbps
Encoded date                             : UTC 2011-03-03 10:22:28
Writing application                      : mkvmerge v4.4.0 ('Die Wiederkehr') built on Oct 31 2010 21:52:48
Writing library                          : libebml v1.0.0 + libmatroska v1.0.0

Video
ID                                       : 1
Format                                   : AVC
Format/Info                              : Advanced Video Codec
Format profile                           : High@L4.0
Format settings, CABAC                   : Yes
Format settings, ReFrames                : 16 frames
Muxing mode                              : Header stripping
Codec ID                                 : V_MPEG4/ISO/AVC
Duration                                 : 1h 42mn
Bit rate                                 : 1 674 Kbps
Width                                    : 720 pixels
Height                                   : 476 pixels
Display aspect ratio                     : 1.377
Original display aspect ratio            : 1.375
Frame rate mode                          : Constant
Frame rate                               : 23.976 fps
Color space                              : YUV
Chroma subsampling                       : 4:2:0
Bit depth                                : 8 bits
Scan type                                : Progressive
Bits/(Pixel*Frame)                       : 0.204
Stream size                              : 1.20 GiB (77%)
Writing library                          : x264 core 114 r1913 5fd3dce
Language                                 : English
Default                                  : Yes
Forced                                   : No

Audio
ID                                       : 2
Format                                   : AC-3
Format/Info                              : Audio Coding 3
Mode extension                           : CM (complete main)
Format settings, Endianness              : Big
Muxing mode                              : Header stripping
Codec ID                                 : A_AC3
Duration                                 : 1h 42mn
Bit rate mode                            : Constant
Bit rate                                 : 448 Kbps
Channel(s)                               : 2 channels
Channel positions                        : Front: L R
Sampling rate                            : 48.0 KHz
Bit depth                                : 16 bits
Compression mode                         : Lossy
Stream size                              : 328 MiB (21%)
Title                                    : Japanese DD 2.0 Mono
Language                                 : Japanese
Default                                  : Yes
Forced                                   : No

Text
ID                                       : 3
Format                                   : UTF-8
Codec ID                                 : S_TEXT/UTF8
Codec ID/Info                            : UTF-8 Plain Text
Title                                    : English
Language                                 : English
Default                                  : Yes
Forced                                   : No

Menu
00:00:00.000                             : Opening Credits
00:02:12.434                             : Master Printer
00:09:15.434                             : Alibis
00:19:17.934                             : Seal
00:25:15.768                             : Confessors
00:29:04.102                             : Otama's Bedroom
00:37:07.936                             : Accusations
00:45:55.103                             : Festivities
00:52:56.270                             : House of Gifuya
00:58:09.270                             : Fugitives
01:02:32.937                             : Lake Biwa
01:08:49.604                             : Mountain Pass
01:18:37.271                             : Mohei's Father
01:25:58.271                             : Propaganda
01:29:46.271                             : Reunited
01:36:58.771                             : Crucified Lovers